<svg width="512" height="512" viewBox="0 0 512 512" fill="none" xmlns="http://www.w3.org/2000/svg">
<path d="M-2.67029e-05 512H17.0666C87.2159 511.996 155.013 486.706 208.027 440.766L225.975 425.21C235.954 426.179 245.974 426.665 256 426.667C323.762 426.667 387.611 404.874 435.785 365.302C484.933 324.931 512 270.96 512 213.333C512 155.707 484.933 101.735 435.785 61.3643C387.611 21.7931 323.762 0 256 0C188.238 0 124.389 21.7931 76.2154 61.3643C27.0666 101.735 -2.67029e-05 155.707 -2.67029e-05 213.333C0.0240375 243.966 7.75542 274.1 22.4821 300.961C35.2655 324.355 52.2893 345.167 72.6848 362.334C57.4427 401.092 34.4053 436.308 4.99945 465.801L-2.67029e-05 470.798V512ZM214.98 389.57L185.671 414.972C145.248 450.003 94.9171 471.574 41.6714 476.689C71.0495 443.851 93.7373 405.595 108.463 364.067L113.151 350.773L103.328 343.234C58.7061 308.99 34.1333 262.858 34.1333 213.333C34.1333 114.522 133.663 34.1333 256 34.1333C378.337 34.1333 477.867 114.522 477.867 213.333C477.867 312.145 378.337 392.533 256 392.533C244.805 392.532 233.619 391.851 222.507 390.493L214.98 389.57Z" fill="black"/>
</svg>
