<svg width="908" height="857" viewBox="0 0 908 857" fill="none" xmlns="http://www.w3.org/2000/svg">
<path d="M888.5 422L502.1 35.8001L476.2 9.90008C470.299 4.03774 462.318 0.747559 454 0.747559C445.682 0.747559 437.701 4.03774 431.8 9.90008L19.5 422C13.4531 428.023 8.67416 435.197 5.44522 443.098C2.21628 450.998 0.602799 459.466 0.700007 468C1.10001 503.2 30.4 531.3 65.6 531.3H108.1V857H799.9V531.3H843.3C860.4 531.3 876.5 524.6 888.6 512.5C894.558 506.561 899.279 499.499 902.489 491.724C905.698 483.948 907.334 475.612 907.3 467.2C907.3 450.2 900.6 434.1 888.5 422V422ZM510 785H398V581H510V785ZM727.9 459.3V785H574V557C574 534.9 556.1 517 534 517H374C351.9 517 334 534.9 334 557V785H180.1V459.3H84.1L454.1 89.6001L477.2 112.7L824 459.3H727.9Z" fill="black"/>
</svg>
