<svg width="586" height="506" viewBox="0 0 586 506" fill="none" xmlns="http://www.w3.org/2000/svg">
<path d="M542.406 146.592C538 144.867 533.306 143.987 528.572 144H528.076C503.074 144.37 475.034 167.688 460.32 202.954C442.681 245.145 450.8 288.311 478.592 299.408C482.993 301.133 487.683 302.013 492.413 302C517.54 302 545.963 278.547 560.801 243.046C578.317 200.855 570.074 157.689 542.406 146.592V146.592Z" stroke="black" stroke-width="32" stroke-miterlimit="10"/>
<path d="M381.24 311.434C347.004 254.437 332.225 233 293.063 233C253.9 233 238.998 254.573 204.762 311.434C175.451 360.067 116.214 364.119 101.436 405.425C98.4377 412.99 96.932 421.068 97.0024 429.21C97.0024 462.805 122.618 490 154.146 490C193.308 490 246.634 458.629 293.186 458.629C339.738 458.629 392.817 490 431.98 490C463.507 490 489 462.817 489 429.21C489.028 421.06 487.48 412.983 484.443 405.425C469.665 363.971 410.551 360.067 381.24 311.434Z" stroke="black" stroke-width="32" stroke-miterlimit="10"/>
<path d="M214.351 179C216.016 179.001 217.678 178.878 219.324 178.63C248.183 174.468 266.199 134.755 259.659 89.9057C253.505 47.6245 227.667 16 200.649 16C198.984 15.9987 197.322 16.1225 195.676 16.3705C166.817 20.5319 148.801 60.2446 155.341 105.094C161.495 147.252 187.333 179 214.351 179Z" stroke="black" stroke-width="32" stroke-miterlimit="10"/>
<path d="M429.671 105.094C436.153 60.2446 418.298 20.5319 389.7 16.3705C388.068 16.1225 386.421 15.9987 384.771 16C357.996 16 332.44 47.6245 326.329 89.9057C319.847 134.755 337.702 174.468 366.3 178.63C367.932 178.878 369.579 179.001 371.229 179C398.004 179 423.609 147.252 429.671 105.094V105.094Z" stroke="black" stroke-width="32" stroke-miterlimit="10"/>
<path d="M107.445 299.408C135.201 288.298 143.308 245.095 125.693 202.954C110.867 167.453 82.4667 144 57.3766 144C52.6462 143.987 47.9563 144.867 43.5547 146.592C15.7994 157.702 7.69221 200.905 25.3074 243.046C40.1333 278.547 68.5333 302 93.6234 302C98.3538 302.013 103.044 301.133 107.445 299.408V299.408Z" stroke="black" stroke-width="32" stroke-miterlimit="10"/>
</svg>
