<svg width="512" height="512" viewBox="0 0 512 512" fill="none" xmlns="http://www.w3.org/2000/svg">
<path d="M490.39 182.75C484.84 169.56 475.62 160.05 463.72 155.26L463.56 155.2C458.144 153.079 452.377 151.993 446.56 152H445.92C418.68 152.41 390.87 175.56 376.73 209.61C366.36 234.51 365.17 261.29 373.55 281.25C379.09 294.45 388.33 303.96 400.28 308.75L400.41 308.8C405.827 310.92 411.593 312.005 417.41 312C444.91 312 473.01 288.85 487.41 254.35C497.65 229.48 498.78 202.72 490.39 182.75Z" fill="black"/>
<path d="M381.55 329.61C365.84 320.17 350.99 311.24 341.29 295.2C314.53 250.8 298.37 224 256 224C213.63 224 197.43 250.8 170.61 295.2C160.89 311.26 146.01 320.2 130.25 329.68C112.18 340.54 93.51 351.76 85.45 373.84C82.3166 381.8 80.7381 390.286 80.8 398.84C80.8 434.79 108.8 464.04 143.2 464.04C160.95 464.04 179.84 457.89 199.83 451.38C219.05 445.12 238.92 438.65 256.1 438.65C273.28 438.65 293.1 445.12 312.25 451.38C332.2 457.85 351 464 368.8 464C403.15 464 431.1 434.75 431.1 398.8C431.128 390.24 429.516 381.753 426.35 373.8C418.29 351.7 399.61 340.47 381.55 329.61Z" fill="black"/>
<path d="M150 188.85C161.9 203.78 177 212 192.52 212C194.639 212 196.755 211.843 198.85 211.53C231.22 206.77 251.39 167.27 244.77 121.53C242 102.3 234.6 84.39 224 71.11C212.12 56.21 197 48 181.49 48C179.371 48.0001 177.256 48.1572 175.16 48.47C142.79 53.23 122.62 92.73 129.24 138.47C132 157.67 139.4 175.56 150 188.85Z" fill="black"/>
<path d="M313.16 211.53C315.256 211.843 317.371 212 319.49 212C335.02 212 350.11 203.78 362.01 188.85C372.6 175.56 379.96 157.67 382.76 138.45C389.38 92.73 369.21 53.23 336.84 48.45C334.745 48.1371 332.629 47.98 330.51 47.98C315 48 299.88 56.21 288 71.11C277.4 84.39 270 102.3 267.24 121.55C260.62 167.27 280.79 206.77 313.16 211.53Z" fill="black"/>
<path d="M111.59 308.8L111.73 308.75C123.66 303.96 132.89 294.46 138.42 281.27C146.8 261.27 145.62 234.52 135.27 209.62C120.94 175.16 92.85 152 65.38 152C59.5628 151.992 53.796 153.077 48.38 155.2L48.24 155.25C36.34 160 27.11 169.54 21.58 182.73C13.2 202.73 14.38 229.48 24.73 254.38C39.06 288.84 67.15 312 94.62 312C100.427 312.005 106.183 310.919 111.59 308.8V308.8Z" fill="black"/>
</svg>
