<svg width="32" height="32" viewBox="0 0 32 32" fill="none" xmlns="http://www.w3.org/2000/svg">
<g clip-path="url(#clip0)">
<path d="M31.5922 0.388293C31.4122 0.209199 31.1849 0.085202 30.9369 0.0308796C30.6889 -0.0234427 30.4306 -0.00583182 30.1923 0.0816418L0.860426 10.7478C0.607463 10.8437 0.389676 11.0143 0.235992 11.237C0.0823084 11.4597 0 11.7238 0 11.9944C0 12.2649 0.0823084 12.5291 0.235992 12.7517C0.389676 12.9744 0.607463 13.145 0.860426 13.241L13.6598 18.3607L18.7795 31.16C18.8757 31.4019 19.0406 31.6103 19.2538 31.7596C19.467 31.9088 19.7193 31.9924 19.9794 32C20.2489 31.9945 20.5103 31.9074 20.7293 31.7503C20.9483 31.5933 21.1145 31.3735 21.206 31.12L31.8722 1.78822C31.963 1.55233 31.9849 1.29549 31.9353 1.04762C31.8858 0.799761 31.7668 0.571097 31.5922 0.388293ZM19.9794 28.5L16 17L22 10.7478L20.7661 9.3345L14.3264 15.7742L4 11.9944L29.5 2.5L19.9794 28.5Z" fill="black"/>
</g>
<defs>
<clipPath id="clip0">
<rect width="32" height="32" fill="white"/>
</clipPath>
</defs>
</svg>
