<svg width="168" height="53" viewBox="0 0 168 53" fill="none" xmlns="http://www.w3.org/2000/svg">
<path d="M30.776 11.312C30.776 13.072 30.472 14.784 29.864 16.448C29.288 18.08 28.488 19.536 27.464 20.816C26.44 22.096 25.24 23.136 23.864 23.936C22.52 24.704 21.08 25.088 19.544 25.088C19.16 25.088 18.776 24.992 18.392 24.8C18.008 24.576 17.608 24.336 17.192 24.08L16.952 23.936C16.888 24.704 16.808 25.648 16.712 26.768C16.648 27.856 16.616 29.072 16.616 30.416C16.616 30.64 16.616 30.832 16.616 30.992C16.616 31.152 16.616 31.296 16.616 31.424C16.648 31.552 16.664 31.68 16.664 31.808C16.664 31.936 16.664 32.112 16.664 32.336C16.664 32.688 16.744 33.04 16.904 33.392C17.096 33.744 17.192 33.952 17.192 34.016C17.192 34.304 17 34.464 16.616 34.496C16.232 34.56 15.992 34.592 15.896 34.592C15.064 34.592 14.408 34.464 13.928 34.208C13.48 33.952 13.144 33.408 12.92 32.576C12.696 31.744 12.552 30.544 12.488 28.976C12.456 27.376 12.44 25.264 12.44 22.64C12.44 20.432 12.488 18.304 12.584 16.256C12.68 14.208 12.792 12.352 12.92 10.688C13.08 8.992 13.224 7.536 13.352 6.32C13.512 5.072 13.64 4.144 13.736 3.536C13.352 3.6 12.84 3.744 12.2 3.968C11.592 4.16 10.936 4.4 10.232 4.688C9.528 4.976 8.808 5.312 8.072 5.696C7.336 6.08 6.664 6.48 6.056 6.896C5.48 7.312 5.016 7.744 4.664 8.192C4.28 8.608 4.088 9.024 4.088 9.44L4.904 12.128C4.904 12.384 4.856 12.72 4.76 13.136C4.664 13.52 4.392 13.712 3.944 13.712C3.304 13.712 2.76 13.6 2.312 13.376C1.832 13.12 1.448 12.816 1.16 12.464C0.84 12.08 0.6 11.68 0.44 11.264C0.28 10.848 0.2 10.464 0.2 10.112C0.2 9.12 0.552 8.192 1.256 7.328C1.928 6.464 2.824 5.68 3.944 4.976C5.032 4.272 6.28 3.632 7.688 3.056C9.096 2.48 10.52 2 11.96 1.616C13.4 1.232 14.776 0.943998 16.088 0.751999C17.432 0.527998 18.584 0.415998 19.544 0.415998C20.664 0.415998 21.768 0.495997 22.856 0.655997C23.976 0.783998 25.08 1.12 26.168 1.664C27.32 2.24 28.2 3.04 28.808 4.064C29.448 5.088 29.912 6.112 30.2 7.136C30.488 8.16 30.648 9.072 30.68 9.872C30.744 10.672 30.776 11.152 30.776 11.312ZM27.416 9.248C27.416 7.744 27.064 6.576 26.36 5.744C25.688 4.88 24.84 4.24 23.816 3.824C22.824 3.408 21.768 3.168 20.648 3.104C19.528 3.008 18.52 2.96 17.624 2.96C17.432 2.96 17.096 2.992 16.616 3.056C16.168 3.088 15.576 3.168 14.84 3.296C15.896 3.552 16.648 3.904 17.096 4.352C17.544 4.8 17.752 5.2 17.72 5.552L17.192 19.136C17.192 20.256 17.288 21.088 17.48 21.632C17.672 22.176 18.216 22.448 19.112 22.448C19.976 22.448 20.888 21.984 21.848 21.056C22.84 20.096 23.736 18.944 24.536 17.6C25.368 16.224 26.056 14.784 26.6 13.28C27.144 11.744 27.416 10.4 27.416 9.248ZM47.0206 24.608C47.0206 25.408 46.8766 26.304 46.5886 27.296C46.3006 28.288 45.8526 29.216 45.2446 30.08C44.6366 30.912 43.8526 31.616 42.8926 32.192C41.9646 32.768 40.8446 33.056 39.5326 33.056C38.2846 33.056 37.2286 32.832 36.3646 32.384C35.5006 31.936 34.7806 31.328 34.2046 30.56C33.6606 29.792 33.2606 28.896 33.0046 27.872C32.7806 26.816 32.6686 25.712 32.6686 24.56C32.6686 23.44 32.7966 22.208 33.0526 20.864C33.3086 19.52 33.7086 18.272 34.2526 17.12C34.7966 15.936 35.4846 14.96 36.3166 14.192C37.1486 13.392 38.1566 12.992 39.3406 12.992C39.9166 12.992 40.4606 13.12 40.9726 13.376C41.4846 13.6 41.9326 13.904 42.3166 14.288C42.7006 14.672 43.0046 15.12 43.2286 15.632C43.4526 16.144 43.5806 16.672 43.6126 17.216L43.6606 17.888C43.6606 18.656 43.5326 19.504 43.2766 20.432C43.0206 21.328 42.6526 22.176 42.1726 22.976C41.6926 23.744 41.1006 24.4 40.3966 24.944C39.6926 25.456 38.8926 25.712 37.9966 25.712C37.8366 25.712 37.6286 25.696 37.3726 25.664C37.1486 25.632 36.9246 25.584 36.7006 25.52V26.912C36.7006 27.136 36.7646 27.456 36.8926 27.872C37.0526 28.288 37.2766 28.704 37.5646 29.12C37.8526 29.504 38.2206 29.856 38.6686 30.176C39.1486 30.464 39.7246 30.608 40.3966 30.608C41.3246 30.608 42.0766 30.432 42.6526 30.08C43.2606 29.696 43.7566 29.216 44.1406 28.64C44.5246 28.064 44.8126 27.424 45.0046 26.72C45.2286 25.984 45.4046 25.28 45.5326 24.608C45.6286 24.16 45.7246 23.856 45.8206 23.696C45.9166 23.536 46.0766 23.456 46.3006 23.456C46.7806 23.456 47.0206 23.728 47.0206 24.272V24.608ZM41.3566 17.168C41.3566 16.912 41.2766 16.64 41.1166 16.352C40.9886 16.064 40.7326 15.92 40.3486 15.92C39.7726 15.92 39.2766 16.224 38.8606 16.832C38.4446 17.44 38.0926 18.144 37.8046 18.944C37.5486 19.712 37.3566 20.464 37.2286 21.2C37.1006 21.904 37.0366 22.368 37.0366 22.592V22.736C37.0366 23.024 37.0526 23.264 37.0846 23.456C37.1486 23.616 37.3246 23.696 37.6126 23.696H37.8526C38.4926 23.696 39.0366 23.456 39.4846 22.976C39.9326 22.496 40.2846 21.92 40.5406 21.248C40.8286 20.576 41.0366 19.888 41.1646 19.184C41.2926 18.48 41.3566 17.904 41.3566 17.456V17.168ZM45.6946 23.312C45.7266 21.68 45.7746 20.016 45.8386 18.32C45.9026 16.624 45.9666 15.056 46.0306 13.616C46.0306 13.36 45.7746 13.184 45.2626 13.088C44.7506 12.992 44.1746 12.896 43.5346 12.8C42.8946 12.704 42.3186 12.56 41.8066 12.368C41.2946 12.144 41.0386 11.792 41.0386 11.312C41.0386 10.896 41.4546 10.656 42.2866 10.592C43.1186 10.528 44.3506 10.496 45.9826 10.496C46.1106 10.496 46.1906 10.304 46.2226 9.92C46.2866 9.536 46.3186 9.056 46.3186 8.48C46.3506 7.872 46.3666 7.232 46.3666 6.56C46.3986 5.888 46.4306 5.264 46.4626 4.688C46.4946 4.08 46.5426 3.584 46.6066 3.2C46.7026 2.816 46.8146 2.624 46.9426 2.624C47.1026 2.624 47.3906 2.656 47.8066 2.72C48.2226 2.784 48.6546 2.88 49.1026 3.008C49.5506 3.104 49.9346 3.232 50.2546 3.392C50.6066 3.552 50.7826 3.728 50.7826 3.92L50.2546 10.16C50.2546 10.352 50.4146 10.496 50.7346 10.592C51.0866 10.656 51.5186 10.704 52.0306 10.736C52.5746 10.736 53.1346 10.736 53.7106 10.736C54.3186 10.736 54.8786 10.784 55.3906 10.88C55.9346 10.976 56.3666 11.136 56.6866 11.36C57.0386 11.552 57.2146 11.856 57.2146 12.272C57.2146 12.336 57.1826 12.448 57.1186 12.608C57.0546 12.736 56.9746 12.8 56.8786 12.8C56.8146 12.8 56.7186 12.752 56.5906 12.656C56.4946 12.56 56.2066 12.512 55.7266 12.512C55.5986 12.512 55.2466 12.528 54.6706 12.56C54.0946 12.592 53.4866 12.64 52.8466 12.704C52.2066 12.768 51.6146 12.848 51.0706 12.944C50.5586 13.008 50.2706 13.104 50.2066 13.232C50.1746 13.296 50.1266 13.68 50.0626 14.384C50.0306 15.056 49.9826 15.952 49.9186 17.072C49.8866 18.192 49.8546 19.488 49.8226 20.96C49.7906 22.4 49.7746 23.92 49.7746 25.52C49.7746 26.128 49.8066 26.72 49.8706 27.296C49.9346 27.872 50.0306 28.4 50.1586 28.88C50.2866 29.328 50.4466 29.696 50.6386 29.984C50.8626 30.272 51.1186 30.416 51.4066 30.416C51.8226 30.416 52.2066 30.24 52.5586 29.888C52.9106 29.536 53.2306 29.056 53.5186 28.448C53.8066 27.84 54.0626 27.152 54.2866 26.384C54.5106 25.616 54.7026 24.832 54.8626 24.032C54.9586 23.552 55.0706 23.216 55.1986 23.024C55.3266 22.8 55.5186 22.688 55.7746 22.688C55.9986 22.688 56.1906 22.768 56.3506 22.928C56.5426 23.056 56.6386 23.376 56.6386 23.888C56.6386 24.208 56.6226 24.416 56.5906 24.512C56.4946 25.088 56.3026 25.888 56.0146 26.912C55.7586 27.904 55.3906 28.896 54.9106 29.888C54.4626 30.848 53.9026 31.696 53.2306 32.432C52.5586 33.168 51.7746 33.536 50.8786 33.536C50.0146 33.536 49.2626 33.28 48.6226 32.768C47.9826 32.288 47.4386 31.616 46.9906 30.752C46.5746 29.856 46.2546 28.816 46.0306 27.632C45.8066 26.416 45.6946 25.12 45.6946 23.744V23.312ZM66.7389 29.024C66.7389 29.792 66.4829 30.384 65.9709 30.8C65.4589 31.216 64.8669 31.52 64.1949 31.712C63.5549 31.904 62.8989 32.016 62.2269 32.048C61.5869 32.112 61.1229 32.144 60.8349 32.144C60.3869 32.144 59.8269 32.096 59.1549 32C58.5149 31.904 57.8749 31.76 57.2349 31.568C56.6269 31.344 56.0989 31.04 55.6509 30.656C55.2349 30.272 55.0269 29.792 55.0269 29.216C55.0269 28.864 55.1549 28.624 55.4109 28.496C55.6989 28.336 55.9709 28.256 56.2269 28.256C56.5789 28.256 56.9149 28.384 57.2349 28.64C57.5869 28.896 57.9389 29.168 58.2909 29.456C58.6749 29.744 59.0909 30.016 59.5389 30.272C59.9869 30.528 60.4989 30.656 61.0749 30.656C61.3309 30.656 61.6669 30.576 62.0829 30.416C62.5309 30.224 62.7549 29.904 62.7549 29.456C62.7549 29.008 62.5629 28.576 62.1789 28.16C61.8269 27.744 61.3629 27.312 60.7869 26.864C60.2429 26.416 59.6509 25.952 59.0109 25.472C58.3709 24.992 57.7629 24.48 57.1869 23.936C56.6429 23.36 56.1789 22.736 55.7949 22.064C55.4429 21.392 55.2669 20.656 55.2669 19.856C55.2669 18.736 55.6189 17.792 56.3229 17.024C57.0589 16.256 57.9069 15.648 58.8669 15.2C59.8589 14.752 60.8669 14.432 61.8909 14.24C62.9149 14.048 63.7149 13.952 64.2909 13.952C64.8349 13.952 65.3789 14.064 65.9229 14.288C66.4669 14.512 66.7389 14.944 66.7389 15.584C66.7389 15.776 66.6909 16.064 66.5949 16.448C66.5309 16.8 66.4029 17.152 66.2109 17.504C66.0509 17.856 65.8269 18.176 65.5389 18.464C65.2509 18.72 64.8829 18.848 64.4349 18.848C64.3069 18.848 64.1789 18.8 64.0509 18.704C63.9229 18.576 63.7789 18.448 63.6189 18.32C63.4589 18.16 63.2829 18.032 63.0909 17.936C62.9309 17.808 62.7389 17.744 62.5149 17.744C61.3949 17.744 60.6109 18.08 60.1629 18.752C59.7149 19.392 59.4909 20.08 59.4909 20.816C59.4909 21.456 59.8589 22.128 60.5949 22.832C61.3629 23.536 62.1949 24.24 63.0909 24.944C64.0189 25.648 64.8509 26.352 65.5869 27.056C66.3549 27.728 66.7389 28.384 66.7389 29.024ZM67.7728 23.312C67.8048 21.68 67.8528 20.016 67.9168 18.32C67.9808 16.624 68.0448 15.056 68.1088 13.616C68.1088 13.36 67.8528 13.184 67.3408 13.088C66.8288 12.992 66.2528 12.896 65.6128 12.8C64.9727 12.704 64.3967 12.56 63.8848 12.368C63.3727 12.144 63.1167 11.792 63.1167 11.312C63.1167 10.896 63.5327 10.656 64.3647 10.592C65.1967 10.528 66.4288 10.496 68.0608 10.496C68.1888 10.496 68.2688 10.304 68.3008 9.92C68.3648 9.536 68.3968 9.056 68.3968 8.48C68.4288 7.872 68.4448 7.232 68.4448 6.56C68.4768 5.888 68.5088 5.264 68.5408 4.688C68.5728 4.08 68.6208 3.584 68.6848 3.2C68.7808 2.816 68.8928 2.624 69.0208 2.624C69.1808 2.624 69.4688 2.656 69.8848 2.72C70.3008 2.784 70.7328 2.88 71.1808 3.008C71.6288 3.104 72.0128 3.232 72.3328 3.392C72.6848 3.552 72.8608 3.728 72.8608 3.92L72.3328 10.16C72.3328 10.352 72.4928 10.496 72.8128 10.592C73.1648 10.656 73.5968 10.704 74.1088 10.736C74.6528 10.736 75.2128 10.736 75.7888 10.736C76.3968 10.736 76.9568 10.784 77.4688 10.88C78.0128 10.976 78.4448 11.136 78.7648 11.36C79.1168 11.552 79.2928 11.856 79.2928 12.272C79.2928 12.336 79.2608 12.448 79.1968 12.608C79.1328 12.736 79.0528 12.8 78.9568 12.8C78.8928 12.8 78.7968 12.752 78.6688 12.656C78.5728 12.56 78.2848 12.512 77.8047 12.512C77.6768 12.512 77.3248 12.528 76.7488 12.56C76.1728 12.592 75.5648 12.64 74.9248 12.704C74.2848 12.768 73.6928 12.848 73.1488 12.944C72.6368 13.008 72.3488 13.104 72.2848 13.232C72.2528 13.296 72.2048 13.68 72.1408 14.384C72.1088 15.056 72.0608 15.952 71.9968 17.072C71.9648 18.192 71.9328 19.488 71.9008 20.96C71.8688 22.4 71.8528 23.92 71.8528 25.52C71.8528 26.128 71.8848 26.72 71.9488 27.296C72.0128 27.872 72.1088 28.4 72.2368 28.88C72.3648 29.328 72.5248 29.696 72.7168 29.984C72.9408 30.272 73.1968 30.416 73.4848 30.416C73.9008 30.416 74.2848 30.24 74.6368 29.888C74.9888 29.536 75.3088 29.056 75.5968 28.448C75.8848 27.84 76.1408 27.152 76.3648 26.384C76.5888 25.616 76.7808 24.832 76.9408 24.032C77.0368 23.552 77.1488 23.216 77.2768 23.024C77.4048 22.8 77.5968 22.688 77.8528 22.688C78.0768 22.688 78.2688 22.768 78.4288 22.928C78.6208 23.056 78.7168 23.376 78.7168 23.888C78.7168 24.208 78.7008 24.416 78.6688 24.512C78.5728 25.088 78.3808 25.888 78.0928 26.912C77.8368 27.904 77.4688 28.896 76.9888 29.888C76.5408 30.848 75.9808 31.696 75.3088 32.432C74.6368 33.168 73.8528 33.536 72.9568 33.536C72.0928 33.536 71.3408 33.28 70.7008 32.768C70.0608 32.288 69.5168 31.616 69.0688 30.752C68.6528 29.856 68.3328 28.816 68.1088 27.632C67.8848 26.416 67.7728 25.12 67.7728 23.744V23.312ZM96.257 26.768C96.193 27.216 96.033 27.744 95.777 28.352C95.521 28.96 95.185 29.552 94.769 30.128C94.385 30.672 93.921 31.136 93.377 31.52C92.865 31.904 92.289 32.096 91.649 32.096C90.689 32.096 89.841 31.728 89.105 30.992C88.401 30.256 87.969 29.216 87.809 27.872C87.617 28.384 87.393 28.976 87.137 29.648C86.881 30.32 86.561 30.944 86.177 31.52C85.793 32.096 85.345 32.576 84.833 32.96C84.353 33.376 83.777 33.584 83.105 33.584C82.913 33.584 82.769 33.568 82.673 33.536C82.577 33.504 82.465 33.456 82.337 33.392C82.241 33.36 82.113 33.328 81.953 33.296C81.825 33.264 81.633 33.248 81.377 33.248C80.609 33.248 79.953 32.992 79.409 32.48C78.897 32 78.481 31.376 78.161 30.608C77.841 29.84 77.601 29.008 77.441 28.112C77.313 27.184 77.249 26.32 77.249 25.52C77.249 23.6 77.345 21.776 77.537 20.048C77.761 18.32 78.113 16.8 78.593 15.488C79.073 14.144 79.697 13.088 80.465 12.32C81.233 11.52 82.161 11.12 83.249 11.12C83.889 11.12 84.369 11.184 84.689 11.312C85.041 11.408 85.361 11.536 85.649 11.696C85.937 11.824 86.241 11.968 86.561 12.128C86.913 12.288 87.393 12.416 88.001 12.512C88.673 12.896 89.137 13.36 89.393 13.904C89.681 14.416 89.857 14.976 89.921 15.584C90.017 16.192 90.049 16.832 90.017 17.504C89.985 18.144 90.017 18.784 90.113 19.424C90.113 19.456 90.177 19.504 90.305 19.568C90.465 19.632 90.641 19.712 90.833 19.808C91.025 19.872 91.185 19.984 91.313 20.144C91.473 20.272 91.553 20.448 91.553 20.672V20.864C91.233 21.696 91.041 22.432 90.977 23.072C90.913 23.712 90.881 24.48 90.881 25.376C90.881 25.824 90.897 26.32 90.929 26.864C90.993 27.376 91.073 27.872 91.169 28.352C91.297 28.8 91.473 29.184 91.697 29.504C91.921 29.792 92.209 29.936 92.561 29.936C92.945 29.936 93.281 29.744 93.569 29.36C93.889 28.976 94.145 28.544 94.337 28.064C94.561 27.552 94.737 27.04 94.865 26.528C95.025 26.016 95.121 25.632 95.153 25.376C95.217 24.992 95.377 24.8 95.633 24.8C95.793 24.8 95.937 24.896 96.065 25.088C96.225 25.248 96.305 25.552 96.305 26C96.305 26.128 96.305 26.256 96.305 26.384C96.305 26.48 96.289 26.608 96.257 26.768ZM87.377 18.992C87.377 18.64 87.345 18.224 87.281 17.744C87.217 17.264 87.105 16.816 86.945 16.4C86.785 15.984 86.545 15.632 86.225 15.344C85.905 15.056 85.473 14.912 84.929 14.912C84.033 14.912 83.297 15.328 82.721 16.16C82.177 16.96 81.745 17.92 81.425 19.04C81.105 20.128 80.897 21.264 80.801 22.448C80.705 23.6 80.657 24.512 80.657 25.184C80.657 25.696 80.673 26.32 80.705 27.056C80.769 27.76 80.865 28.432 80.993 29.072C81.121 29.712 81.297 30.256 81.521 30.704C81.777 31.152 82.097 31.376 82.481 31.376C83.409 31.376 84.113 31.024 84.593 30.32C85.105 29.584 85.489 28.688 85.745 27.632C86.001 26.544 86.177 25.392 86.273 24.176C86.401 22.928 86.513 21.792 86.609 20.768C86.673 20.224 86.817 19.888 87.041 19.76C87.265 19.6 87.377 19.488 87.377 19.424V18.992ZM110.767 33.248C110.767 33.568 110.623 33.792 110.335 33.92C110.047 34.048 109.775 34.112 109.519 34.112L108.559 34.016C108.399 34.016 108.319 34.112 108.319 34.304L108.271 34.88C108.303 35.744 108.319 36.832 108.319 38.144C108.319 39.456 108.319 40.72 108.319 41.936C108.319 43.216 108.271 44.464 108.174 45.68C108.111 46.928 107.935 48.032 107.647 48.992C107.359 49.984 106.943 50.768 106.398 51.344C105.887 51.952 105.167 52.256 104.239 52.256C103.439 52.256 102.591 52.208 101.695 52.112C100.831 52.048 100.031 51.856 99.2945 51.536C98.5905 51.216 97.9985 50.736 97.5185 50.096C97.0705 49.488 96.8465 48.656 96.8465 47.6C96.8465 46.544 96.9585 45.456 97.1825 44.336C97.4385 43.248 97.7905 42.176 98.2385 41.12C98.6865 40.096 99.2145 39.104 99.8225 38.144C100.463 37.216 101.151 36.384 101.887 35.648C102.271 35.264 102.687 34.864 103.135 34.448C103.615 34.064 104.031 33.744 104.383 33.488V33.44C104.447 32.768 104.495 32.096 104.527 31.424C104.559 30.752 104.575 30.064 104.575 29.36C104.415 29.648 104.223 30.048 103.999 30.56C103.775 31.04 103.503 31.504 103.183 31.952C102.895 32.4 102.559 32.784 102.175 33.104C101.791 33.456 101.359 33.632 100.879 33.632C100.623 33.632 100.399 33.584 100.207 33.488C100.015 33.392 99.7425 33.344 99.3905 33.344C98.4945 33.28 97.7425 33.04 97.1345 32.624C96.5585 32.208 96.0945 31.632 95.7425 30.896C95.4225 30.16 95.1985 29.296 95.0705 28.304C94.9425 27.28 94.8785 26.144 94.8785 24.896C94.8785 23.392 94.9585 21.84 95.1185 20.24C95.3105 18.64 95.6305 17.184 96.0785 15.872C96.5265 14.528 97.1185 13.44 97.8545 12.608C98.6225 11.744 99.5825 11.312 100.735 11.312C100.863 11.312 101.023 11.36 101.215 11.456C101.439 11.552 101.663 11.664 101.887 11.792C102.143 11.888 102.383 12 102.607 12.128C102.863 12.224 103.055 12.288 103.183 12.32C103.823 12.448 104.415 12.608 104.959 12.8C105.503 12.992 105.967 13.248 106.351 13.568C106.735 13.856 107.039 14.256 107.263 14.768C107.487 15.248 107.599 15.856 107.599 16.592C107.599 17.104 107.551 17.568 107.455 17.984C107.391 18.4 107.359 18.928 107.359 19.568C107.359 19.824 107.455 20 107.647 20.096C107.839 20.192 108.047 20.272 108.271 20.336C108.527 20.4 108.751 20.48 108.943 20.576C109.135 20.64 109.231 20.8 109.231 21.056C109.231 21.12 109.151 21.28 108.991 21.536C108.863 21.76 108.783 21.904 108.751 21.968C108.655 22.224 108.575 22.64 108.511 23.216C108.447 23.76 108.399 24.368 108.367 25.04C108.335 25.68 108.303 26.352 108.271 27.056C108.271 27.728 108.271 28.336 108.271 28.88C108.271 29.296 108.271 29.856 108.271 30.56C108.271 31.232 108.287 31.792 108.319 32.24H108.511C108.575 32.24 108.639 32.224 108.703 32.192C108.767 32.192 108.815 32.192 108.847 32.192C109.135 32.192 109.519 32.272 109.999 32.432C110.511 32.624 110.767 32.896 110.767 33.248ZM104.623 18.416C104.623 18.064 104.591 17.664 104.527 17.216C104.463 16.768 104.351 16.352 104.191 15.968C104.031 15.552 103.791 15.216 103.471 14.96C103.183 14.672 102.815 14.528 102.367 14.528C101.759 14.528 101.183 14.768 100.639 15.248C100.127 15.728 99.6625 16.416 99.2465 17.312C98.8625 18.176 98.5425 19.248 98.2865 20.528C98.0625 21.776 97.9505 23.2 97.9505 24.8C97.9505 25.472 97.9665 26.176 97.9985 26.912C98.0625 27.616 98.1425 28.256 98.2385 28.832C98.3665 29.408 98.5425 29.888 98.7665 30.272C99.0225 30.656 99.3425 30.848 99.7265 30.848C100.399 30.848 100.991 30.56 101.503 29.984C102.015 29.408 102.431 28.704 102.751 27.872C103.103 27.008 103.359 26.128 103.519 25.232C103.711 24.304 103.823 23.504 103.855 22.832C103.887 21.904 103.935 21.28 103.999 20.96C104.063 20.608 104.127 20.384 104.191 20.288C104.383 20.032 104.495 19.728 104.527 19.376C104.591 19.024 104.623 18.704 104.623 18.416ZM104.431 35.12C103.695 35.632 102.991 36.352 102.319 37.28C101.679 38.208 101.119 39.216 100.639 40.304C100.159 41.392 99.7745 42.496 99.4865 43.616C99.2305 44.736 99.1025 45.744 99.1025 46.64C99.1025 46.96 99.1345 47.312 99.1985 47.696C99.2625 48.08 99.3585 48.432 99.4865 48.752C99.6465 49.104 99.8545 49.392 100.111 49.616C100.399 49.84 100.735 49.952 101.118 49.952C101.791 49.952 102.335 49.664 102.751 49.088C103.199 48.544 103.535 47.888 103.759 47.12C104.015 46.352 104.175 45.568 104.239 44.768C104.335 43.968 104.383 43.328 104.383 42.848C104.383 42.752 104.383 42.608 104.383 42.416C104.383 42.224 104.383 41.856 104.383 41.312C104.415 40.768 104.431 40 104.431 39.008C104.431 38.048 104.431 36.752 104.431 35.12ZM125.098 25.232C125.098 25.456 125.018 26 124.858 26.864C124.73 27.696 124.474 28.592 124.09 29.552C123.738 30.48 123.242 31.312 122.602 32.048C121.994 32.784 121.21 33.152 120.25 33.152C119.226 33.152 118.41 32.784 117.802 32.048C117.194 31.344 116.73 30.496 116.41 29.504C116.09 28.48 115.882 27.424 115.786 26.336C115.69 25.216 115.642 24.288 115.642 23.552C115.642 22.72 115.69 21.888 115.786 21.056C115.882 20.192 115.946 19.344 115.978 18.512C115.978 18.256 115.85 18.096 115.594 18.032C115.338 17.968 115.098 17.936 114.874 17.936C114.49 17.936 114.25 17.984 114.154 18.08C114.058 18.176 113.994 18.288 113.962 18.416L113.77 19.952C113.642 20.976 113.498 21.968 113.338 22.928C113.21 23.856 113.05 24.688 112.858 25.424C112.698 26.128 112.49 26.704 112.234 27.152C112.01 27.568 111.738 27.776 111.418 27.776H111.37C111.242 27.776 111.114 27.744 110.986 27.68C110.889 27.616 110.841 27.456 110.841 27.2C110.841 27.072 110.873 26.88 110.938 26.624C111.194 25.504 111.354 24.576 111.418 23.84C111.482 23.104 111.53 22.448 111.562 21.872V21.536C111.562 21.376 111.562 21.184 111.562 20.96C111.594 20.736 111.61 20.464 111.61 20.144V18.896C111.61 18.544 111.61 18.176 111.61 17.792C111.61 17.408 111.578 16.992 111.514 16.544L111.37 13.712C111.37 13.52 111.45 13.344 111.61 13.184C111.77 13.024 111.978 12.88 112.234 12.752C112.49 12.624 112.762 12.528 113.05 12.464C113.338 12.4 113.594 12.368 113.818 12.368C114.362 12.368 114.634 12.72 114.634 13.424V13.664L114.586 14.72V15.008C114.586 15.232 114.634 15.376 114.73 15.44C114.826 15.472 115.018 15.52 115.306 15.584H115.45C115.706 15.616 116.122 15.648 116.698 15.68C117.274 15.712 117.85 15.776 118.426 15.872C119.002 15.968 119.498 16.128 119.914 16.352C120.362 16.544 120.586 16.832 120.586 17.216C120.586 17.344 120.554 17.536 120.49 17.792C120.426 18.016 120.346 18.256 120.25 18.512C120.154 18.736 120.074 18.944 120.01 19.136C119.946 19.328 119.914 19.456 119.914 19.52C119.338 21.728 119.05 24.032 119.05 26.432C119.05 26.624 119.066 26.976 119.098 27.488C119.13 28 119.194 28.528 119.29 29.072C119.386 29.616 119.53 30.096 119.722 30.512C119.914 30.928 120.154 31.136 120.442 31.136C120.922 31.136 121.354 30.848 121.738 30.272C122.122 29.664 122.458 28.976 122.746 28.208C123.034 27.408 123.258 26.608 123.418 25.808C123.61 25.008 123.738 24.416 123.802 24.032C123.866 23.68 123.962 23.472 124.09 23.408C124.25 23.312 124.394 23.264 124.522 23.264C124.97 23.264 125.194 23.552 125.194 24.128C125.194 24.192 125.178 24.368 125.146 24.656C125.146 24.912 125.13 25.104 125.098 25.232ZM142.71 26.768C142.646 27.216 142.486 27.744 142.23 28.352C141.974 28.96 141.638 29.552 141.222 30.128C140.838 30.672 140.374 31.136 139.83 31.52C139.318 31.904 138.742 32.096 138.102 32.096C137.142 32.096 136.294 31.728 135.558 30.992C134.854 30.256 134.422 29.216 134.262 27.872C134.07 28.384 133.846 28.976 133.59 29.648C133.334 30.32 133.014 30.944 132.63 31.52C132.246 32.096 131.798 32.576 131.286 32.96C130.806 33.376 130.23 33.584 129.558 33.584C129.366 33.584 129.222 33.568 129.126 33.536C129.03 33.504 128.918 33.456 128.79 33.392C128.694 33.36 128.566 33.328 128.406 33.296C128.278 33.264 128.086 33.248 127.83 33.248C127.062 33.248 126.406 32.992 125.862 32.48C125.35 32 124.934 31.376 124.614 30.608C124.294 29.84 124.054 29.008 123.894 28.112C123.766 27.184 123.702 26.32 123.702 25.52C123.702 23.6 123.798 21.776 123.99 20.048C124.214 18.32 124.566 16.8 125.046 15.488C125.526 14.144 126.15 13.088 126.918 12.32C127.686 11.52 128.614 11.12 129.702 11.12C130.342 11.12 130.822 11.184 131.142 11.312C131.494 11.408 131.814 11.536 132.102 11.696C132.39 11.824 132.694 11.968 133.014 12.128C133.366 12.288 133.846 12.416 134.454 12.512C135.126 12.896 135.59 13.36 135.846 13.904C136.134 14.416 136.31 14.976 136.374 15.584C136.47 16.192 136.502 16.832 136.47 17.504C136.438 18.144 136.47 18.784 136.566 19.424C136.566 19.456 136.63 19.504 136.758 19.568C136.918 19.632 137.094 19.712 137.286 19.808C137.478 19.872 137.638 19.984 137.766 20.144C137.926 20.272 138.006 20.448 138.006 20.672V20.864C137.686 21.696 137.494 22.432 137.43 23.072C137.366 23.712 137.334 24.48 137.334 25.376C137.334 25.824 137.35 26.32 137.382 26.864C137.446 27.376 137.526 27.872 137.622 28.352C137.75 28.8 137.926 29.184 138.15 29.504C138.374 29.792 138.662 29.936 139.014 29.936C139.398 29.936 139.734 29.744 140.022 29.36C140.342 28.976 140.598 28.544 140.79 28.064C141.014 27.552 141.19 27.04 141.318 26.528C141.478 26.016 141.574 25.632 141.606 25.376C141.67 24.992 141.83 24.8 142.086 24.8C142.246 24.8 142.39 24.896 142.518 25.088C142.678 25.248 142.758 25.552 142.758 26C142.758 26.128 142.758 26.256 142.758 26.384C142.758 26.48 142.742 26.608 142.71 26.768ZM133.83 18.992C133.83 18.64 133.798 18.224 133.734 17.744C133.67 17.264 133.558 16.816 133.398 16.4C133.238 15.984 132.998 15.632 132.678 15.344C132.358 15.056 131.926 14.912 131.382 14.912C130.486 14.912 129.75 15.328 129.174 16.16C128.63 16.96 128.198 17.92 127.878 19.04C127.558 20.128 127.35 21.264 127.254 22.448C127.158 23.6 127.11 24.512 127.11 25.184C127.11 25.696 127.126 26.32 127.158 27.056C127.222 27.76 127.318 28.432 127.446 29.072C127.574 29.712 127.75 30.256 127.974 30.704C128.23 31.152 128.55 31.376 128.934 31.376C129.862 31.376 130.566 31.024 131.046 30.32C131.558 29.584 131.942 28.688 132.198 27.632C132.454 26.544 132.63 25.392 132.726 24.176C132.854 22.928 132.966 21.792 133.062 20.768C133.126 20.224 133.27 19.888 133.494 19.76C133.718 19.6 133.83 19.488 133.83 19.424V18.992ZM157.412 20.192C156.964 21.056 156.548 21.968 156.164 22.928C155.78 23.888 155.492 24.64 155.3 25.184C155.268 25.344 155.172 25.68 155.012 26.192C154.884 26.704 154.724 27.28 154.532 27.92C154.372 28.528 154.228 29.136 154.1 29.744C153.972 30.352 153.908 30.848 153.908 31.232C153.908 31.392 153.764 31.536 153.476 31.664C153.188 31.792 152.82 31.856 152.372 31.856C151.668 31.856 151.108 31.76 150.692 31.568C150.276 31.376 149.956 31.072 149.732 30.656C149.54 30.208 149.412 29.632 149.348 28.928C149.316 28.224 149.3 27.376 149.3 26.384V22.784C149.3 22.528 149.284 22.272 149.252 22.016C149.252 21.76 149.204 21.6 149.108 21.536C148.948 21.6 148.74 22.016 148.484 22.784C148.26 23.552 148.036 24.496 147.812 25.616C147.62 26.704 147.444 27.856 147.284 29.072C147.124 30.288 147.044 31.376 147.044 32.336C147.044 32.688 146.852 32.896 146.468 32.96C146.116 33.024 145.716 33.056 145.268 33.056C145.14 33.056 144.916 33.024 144.596 32.96C144.308 32.928 144.004 32.88 143.684 32.816C143.396 32.752 143.124 32.656 142.868 32.528C142.612 32.432 142.452 32.304 142.388 32.144C142.228 31.728 142.1 31.04 142.004 30.08C141.94 29.12 141.908 27.632 141.908 25.616C141.908 24.432 141.924 23.056 141.956 21.488C142.02 19.92 142.084 18.08 142.148 15.968C142.148 15.68 142.132 15.312 142.1 14.864C142.068 14.384 142.052 14.112 142.052 14.048C142.052 13.792 142.148 13.648 142.34 13.616C142.564 13.552 142.724 13.52 142.82 13.52C143.044 13.52 143.3 13.552 143.588 13.616C143.908 13.648 144.212 13.696 144.5 13.76C144.82 13.824 145.108 13.904 145.364 14C145.62 14.064 145.796 14.128 145.892 14.192V25.76C146.052 25.12 146.228 24.384 146.42 23.552C146.644 22.688 146.884 21.84 147.14 21.008C147.428 20.176 147.732 19.408 148.052 18.704C148.372 18 148.708 17.488 149.06 17.168C149.188 17.072 149.428 17.008 149.78 16.976C150.132 16.912 150.42 16.88 150.644 16.88C150.804 16.88 150.996 16.912 151.22 16.976C151.476 17.008 151.716 17.072 151.94 17.168C152.164 17.264 152.356 17.392 152.516 17.552C152.708 17.68 152.82 17.84 152.852 18.032V25.808V26.24C152.852 26.432 152.884 26.528 152.948 26.528C153.012 26.528 153.188 26.096 153.476 25.232C153.796 24.368 154.164 23.344 154.58 22.16C154.996 20.976 155.444 19.76 155.924 18.512C156.404 17.264 156.836 16.272 157.22 15.536C157.284 15.408 157.492 15.344 157.844 15.344C158.228 15.312 158.564 15.296 158.852 15.296C159.076 15.296 159.38 15.376 159.764 15.536C160.148 15.664 160.516 15.856 160.868 16.112C161.252 16.368 161.572 16.656 161.828 16.976C162.116 17.296 162.26 17.632 162.26 17.984C162.26 18.048 162.164 18.24 161.972 18.56C161.78 18.848 161.652 19.152 161.588 19.472C161.364 20.368 161.204 21.248 161.108 22.112C161.044 22.976 161.012 24.08 161.012 25.424C161.012 26 161.028 26.576 161.06 27.152C161.124 27.728 161.204 28.256 161.3 28.736C161.428 29.184 161.588 29.552 161.78 29.84C161.972 30.128 162.228 30.272 162.548 30.272C162.996 30.272 163.396 30.128 163.748 29.84C164.1 29.52 164.404 29.104 164.66 28.592C164.916 28.08 165.14 27.488 165.332 26.816C165.524 26.112 165.684 25.392 165.812 24.656C165.972 23.888 166.26 23.504 166.676 23.504C166.932 23.504 167.092 23.568 167.156 23.696C167.252 23.824 167.3 24.112 167.3 24.56C167.3 24.816 167.284 24.992 167.252 25.088C167.22 25.504 167.076 26.16 166.82 27.056C166.596 27.92 166.26 28.8 165.812 29.696C165.396 30.56 164.868 31.328 164.228 32C163.588 32.64 162.852 32.96 162.02 32.96C161.028 32.96 160.212 32.72 159.572 32.24C158.932 31.792 158.436 31.184 158.084 30.416C157.732 29.616 157.476 28.704 157.316 27.68C157.188 26.656 157.124 25.584 157.124 24.464V24.128L157.412 20.192Z" fill="black"/>
</svg>
